PathFileType	4	(X/Y/Z)	C:\Users\Basilio\Documents\Thesis Gigler\squatting_fais\c3dfiles\075\SLS_back_pre1\markers_experimental.trc
DataRate	CameraRate	NumFrames	NumMarkers	Units	OrigDataRate	OrigDataStartFrame	OrigNumFrames
200.000000	200.000000	4	61	mm	200.000000	339	1357
Frame#	Time	FHD			LBHD			C7			T10			CLAV			LSHO			LUUPA			LMUPA			LDUPA			LLEP			LMEP			LRAD			LUL			LRFIN			RSHO			RUPA1			RMUPA			RDUPA			RLEP			RMEP			RRAD			RUL			RUFIN			LASI			RASI			USACR			LSACR			RSACR			LTHI1			LTHI2			LTHI3			LTHI4			LLFC			LMFC			LTIB1			LTIB2			LTIB3			LTIB4			LLMAL			LMMAL			LHEE			LMT1			LMT2			LMT5			RTHI			RTHI2			RTHI3			RTHI4			RLFC			RMFC			RTIB1			RTIB2			RTIB3			RTIB4			RLMAL			RMMAL			RHEE			RMT1			RMT2			RMT5			RBHD			
		X1	Y1	Z1	X2	Y2	Z2	X3	Y3	Z3	X4	Y4	Z4	X5	Y5	Z5	X6	Y6	Z6	X7	Y7	Z7	X8	Y8	Z8	X9	Y9	Z9	X10	Y10	Z10	X11	Y11	Z11	X12	Y12	Z12	X13	Y13	Z13	X14	Y14	Z14	X15	Y15	Z15	X16	Y16	Z16	X17	Y17	Z17	X18	Y18	Z18	X19	Y19	Z19	X20	Y20	Z20	X21	Y21	Z21	X22	Y22	Z22	X23	Y23	Z23	X24	Y24	Z24	X25	Y25	Z25	X26	Y26	Z26	X27	Y27	Z27	X28	Y28	Z28	X29	Y29	Z29	X30	Y30	Z30	X31	Y31	Z31	X32	Y32	Z32	X33	Y33	Z33	X34	Y34	Z34	X35	Y35	Z35	X36	Y36	Z36	X37	Y37	Z37	X38	Y38	Z38	X39	Y39	Z39	X40	Y40	Z40	X41	Y41	Z41	X42	Y42	Z42	X43	Y43	Z43	X44	Y44	Z44	X45	Y45	Z45	X46	Y46	Z46	X47	Y47	Z47	X48	Y48	Z48	X49	Y49	Z49	X50	Y50	Z50	X51	Y51	Z51	X52	Y52	Z52	X53	Y53	Z53	X54	Y54	Z54	X55	Y55	Z55	X56	Y56	Z56	X57	Y57	Z57	X58	Y58	Z58	X59	Y59	Z59	X60	Y60	Z60	X61	Y61	Z61	

340	1.695	-242.8120727539063	1710.150512695313	-777.888122558594	-378.1804504394532	1586.55908203125	-854.5012817382815	-415.7437438964845	1474.572509765625	-796.6784667968752	-450.3352966308595	1155.613525390625	-787.2664184570315	-275.4748535156251	1410.991943359375	-783.6531372070315	-299.9830017089844	1452.505859375	-925.0747070312502	-150.9612579345703	1362.337768554688	-1012.611511230469	-122.9638137817383	1386.126953125	-979.7388916015627	-82.89517974853517	1352.201293945313	-1009.105529785156	0.8649108409881594	1340.760864257813	-992.3103637695315	-23.26838111877442	1268.13671875	-950.7802734375002	nan	nan	nan	206.3593139648438	1363.281982421875	-836.5786743164065	195.6518707275391	1388.421752929688	-731.9937744140626	-322.2619323730469	1448.843139648438	-642.4168701171876	-207.776107788086	1342.601928710938	-511.667205810547	-166.6280364990235	1361.582275390625	-530.3582153320314	-143.6104431152344	1320.893676757813	-491.6114807128907	-73.21046447753908	1306.569580078125	-483.2068176269532	-69.09085083007814	1236.083251953125	-521.8865356445314	126.4517135620117	1366.357788085938	-670.6506958007814	155.8415832519532	1347.244873046875	-600.4418334960939	203.9169158935547	1403.226928710938	-690.4229736328126	-309.7643432617188	977.0772705078127	-926.6414794921877	-297.1592102050782	972.0869140625002	-672.4314575195314	-455.3943786621095	1056.494995117188	-792.2525634765627	-464.7543334960939	1026.927001953125	-820.9400024414065	-462.0013122558595	1025.362060546875	-763.1580200195314	-340.7476501464844	745.0810546875001	-1013.192077636719	-305.2172851562501	669.0982666015626	-1020.868774414063	-261.5170898437501	673.0066528320314	-996.7325439453127	-329.2588806152344	613.5712280273439	-1024.089111328125	-342.9882812500001	523.0203247070314	-1020.608032226563	-324.4902954101563	481.027313232422	-896.787536621094	-408.2731323242189	410.1930541992189	-994.8724365234377	-473.0021972656251	452.9112854003907	-1035.975219726563	-460.1427001953126	412.6866149902345	-1021.961853027344	-531.7273559570314	377.8345642089844	-990.4215087890627	-695.3544921875001	390.2545776367189	-1001.007019042969	-660.7207031250001	362.0808105468751	-923.710632324219	-740.6537475585939	424.6170043945314	-948.8901977539065	-681.7822265625001	222.9459838867188	-941.9189453125002	-685.8457641601564	221.9329528808594	-991.568298339844	-727.3679809570314	253.7770538330079	-1033.344482421875	-347.6460876464844	768.6922607421877	-617.3251342773439	-300.7826232910157	722.5364990234376	-623.1310424804689	-270.6602478027344	733.4702148437501	-634.2328491210939	-315.8781127929688	639.4363403320314	-640.0756835937501	-309.5465393066407	488.6866149902345	-681.9837036132814	-278.2207946777344	496.8890991210939	-806.0735473632815	-272.9113464355469	349.0067443847657	-768.1623535156252	-326.8716430664063	269.9693603515626	-717.3470458984376	-292.2325744628907	265.3840332031251	-751.9588623046876	-311.7346191406251	227.9137878417969	-792.533386230469	-392.2846069335939	114.8528900146485	-766.1205444335939	-365.8587036132813	142.8785400390625	-845.320739746094	-449.4563903808595	98.77498626708987	-824.1610107421877	-246.9078521728516	55.58064651489259	-836.642272949219	-246.1329803466797	55.75769805908205	-794.5042724609377	-283.7128601074219	35.58374023437501	-742.1477661132814	nan	nan	nan	
341	1.7	-242.0968170166016	1709.888061523438	-777.6347656250002	-377.6752319335938	1586.445556640625	-854.1768798828127	-415.4222717285157	1474.36328125	-796.3321533203127	-450.3865051269532	1155.614379882813	-787.0869140625002	-275.0960693359376	1410.7861328125	-783.322448730469	-299.6807861328126	1452.521240234375	-924.6460571289065	-150.5022735595703	1362.679931640625	-1012.470397949219	-122.6631469726563	1386.4345703125	-979.6033935546877	-82.41735839843751	1352.698974609375	-1008.954956054688	1.29743492603302	1341.44580078125	-992.288024902344	-22.61663246154786	1268.579956054688	-950.852722167969	nan	nan	nan	206.9950866699219	1364.068115234375	-836.5844726562502	196.165023803711	1389.087158203125	-732.0484619140626	-321.8309936523438	1448.555541992188	-642.1935424804689	-207.1996002197266	1342.626953125	-511.7966613769532	-166.1681823730469	1361.641845703125	-530.3688964843751	-142.9718475341797	1320.980102539063	-491.619110107422	-72.66040039062501	1306.631103515625	-483.3942260742189	-68.40708160400392	1236.3974609375	-522.0203247070314	127.0907821655274	1366.700439453125	-670.6258544921876	156.3399963378907	1347.562255859375	-600.5549316406251	204.5213012695313	1403.868774414063	-690.3818969726564	-310.1321105957032	976.918884277344	-926.5527954101565	-297.2765502929688	971.6994628906252	-672.2603149414064	-455.6263732910157	1056.50439453125	-792.129333496094	-464.9921264648439	1026.92578125	-820.8221435546877	-462.2804260253907	1025.312255859375	-763.0131835937501	-341.2509765625001	745.1554565429689	-1013.401062011719	-304.9548034667969	668.8386840820314	-1020.922912597656	-262.0748596191407	672.9536743164064	-997.0207519531252	-329.7747802734376	613.6410522460939	-1024.32861328125	-343.5464477539063	522.9931030273439	-1020.958679199219	-325.0202636718751	480.8703918457032	-897.1688232421877	-408.7781372070314	410.0562744140626	-995.3430786132815	-473.4660644531251	452.7826538085939	-1036.483154296875	-460.5660400390626	412.518280029297	-1022.543273925781	-532.0217285156251	377.9081726074219	-992.4172363281252	-695.6935424804689	389.7257080078126	-1001.591064453125	-661.1840209960939	361.5206604003907	-924.289245605469	-741.1618041992189	423.9680786132814	-949.3713378906252	-681.8911743164064	222.3296051025391	-942.6833496093752	-685.9111938476564	221.4171752929688	-992.2663574218752	-727.5875244140626	253.3551483154297	-1034.139892578125	-348.0275573730469	768.484558105469	-617.1563720703126	-301.0979309082032	722.4045410156251	-622.8589477539064	-270.9615173339844	733.3732910156251	-633.9666748046876	-315.9953002929688	639.3146972656251	-639.8278808593751	-309.4777526855469	488.5316467285157	-681.6951293945314	-276.9215393066407	496.8266906738282	-806.315368652344	-272.8125610351563	348.9190673828126	-767.7813110351564	-326.8316040039063	269.9141540527344	-717.1521606445314	-292.1798400878907	265.2770080566407	-751.6828002929689	-311.6851806640626	227.8424072265626	-792.3662719726565	-392.284881591797	114.8479766845703	-765.9908447265626	-365.1383361816407	142.75244140625	-845.0584716796877	-449.465057373047	98.83927917480472	-824.1318359375002	-246.8921661376954	55.57481002807619	-836.5964355468752	-246.1496124267579	55.72866058349611	-794.491638183594	-283.7547302246094	35.57219314575196	-742.0635375976564	nan	nan	nan	
342	1.705	-241.6418762207032	1709.8212890625	-777.4364013671877	-377.2244873046876	1586.159057617188	-853.8319091796877	-415.0501403808595	1474.269409179688	-796.0541992187502	-450.4454040527345	1155.608154296875	-786.8762817382815	-274.7814331054688	1410.49658203125	-783.0039062500002	-299.4402770996094	1452.461547851563	-924.288269042969	-149.9210815429688	1362.9208984375	-1012.31640625	-121.9266967773438	1386.53369140625	-979.3906250000002	-82.1860809326172	1353.296752929688	-1008.916015625	1.622686743736268	1342.049194335938	-992.4282836914065	-22.18270874023438	1269.142700195313	-951.0352172851565	nan	nan	nan	207.2630767822266	1364.7431640625	-836.5960083007815	196.6276550292969	1389.66259765625	-732.0601196289064	-321.5459289550782	1448.380859375	-642.0667114257814	-206.6256561279297	1342.589111328125	-511.7630004882814	-165.6780090332032	1361.651733398438	-530.4530029296876	-142.4127349853516	1321.0283203125	-491.714813232422	-71.95561981201173	1306.77587890625	-483.5842285156251	-67.84444427490236	1236.538452148438	-522.2980346679689	127.6875228881836	1366.91943359375	-670.5844726562501	156.9618530273438	1347.997924804688	-600.7109375000001	205.1295166015626	1404.348754882813	-690.4373779296876	-310.4313049316407	976.8139648437502	-926.4973754882815	-297.5574951171876	971.3733520507815	-672.2251586914064	-455.8833007812501	1056.469360351563	-792.0026855468752	-465.2325744628907	1026.883666992188	-820.7447509765627	-462.4952392578126	1025.242553710938	-762.9443359375001	-341.7992248535157	745.1541137695314	-1013.579833984375	-305.5073242187501	668.8977050781251	-1021.220092773438	-262.4492797851563	672.7873535156251	-997.3111572265627	-330.4100036621094	613.6984863281251	-1024.637573242188	-344.1563110351563	523.0405883789064	-1021.364929199219	-325.5552368164063	480.7543945312501	-897.6794433593752	-409.6715698242189	410.1894836425782	-996.2293701171877	-473.9222717285157	452.5938415527345	-1036.948364257813	-461.0277709960939	412.3502197265626	-1023.041137695313	-532.4071655273439	377.5732116699219	-992.9106445312502	-697.0361938476564	389.726776123047	-1002.382141113281	-661.5934448242189	361.0527954101563	-924.7806396484377	-741.4633178710939	423.2028808593751	-949.7583618164065	-681.9544067382814	221.7704315185547	-943.458923339844	-685.9357299804689	220.9170379638672	-992.892761230469	-727.5406494140626	252.6970214843751	-1034.822998046875	-348.3814392089844	768.3178710937502	-616.9969482421876	-301.3523254394532	722.2314453125001	-622.7000122070314	-271.2484741210938	733.2858276367189	-633.7077636718751	-316.1785583496094	639.1217041015626	-639.5249633789064	-309.4336547851563	488.3902282714845	-681.4029541015626	-276.4559326171876	496.6382751464845	-805.8753051757815	-272.7253417968751	348.8125610351563	-767.5333251953126	-326.8156127929688	269.7915039062501	-716.9624633789064	-292.1145019531251	265.2307739257813	-751.4768676757814	-312.2002868652344	227.9288330078126	-792.5010375976565	-392.2847290039064	114.8282089233399	-765.9030761718751	-365.7557678222657	143.0186004638672	-845.034118652344	-449.4515075683595	98.86478424072268	-824.0874023437502	-246.8961944580079	55.60673904418947	-836.6031494140627	-246.1988220214844	55.69691085815431	-794.4278564453127	-283.7738342285157	35.50896072387696	-742.0490112304689	nan	nan	nan	
343	1.71	-241.0029907226563	1709.395874023438	-777.138854980469	-376.9285278320313	1585.815673828125	-853.6342773437502	-414.661590576172	1474.194702148438	-795.651306152344	-450.5065917968751	1155.571533203125	-786.697692871094	-274.3558654785157	1410.33154296875	-782.6218872070315	-299.0639953613282	1452.384887695313	-923.9516601562502	-149.6229858398438	1363.17724609375	-1012.209167480469	-121.6769485473633	1386.849609375	-979.1951904296877	-81.8211135864258	1353.706176757813	-1008.97607421875	2.004722595214844	1342.5810546875	-992.4193115234377	-21.75909614562989	1269.607788085938	-951.2198486328127	nan	nan	nan	207.7246551513672	1365.600341796875	-836.6677856445315	196.8796539306641	1390.464111328125	-732.0228881835939	-321.3077697753907	1448.1826171875	-641.9086914062501	-206.1990051269532	1342.630493164063	-511.577850341797	-165.2284393310547	1361.64208984375	-530.4974365234376	-141.8125610351563	1321.06103515625	-491.7923278808595	-71.3764114379883	1306.87109375	-483.7028808593751	-67.16590881347658	1236.712646484375	-522.3967285156251	128.2973937988282	1367.329833984375	-670.7854614257814	157.4927673339844	1348.343627929688	-600.8757934570314	205.6569061279297	1404.9072265625	-690.4796142578126	-310.7211303710938	976.6706542968752	-926.4261474609377	-297.9860839843751	971.109069824219	-672.1976928710939	-456.0598449707032	1056.37890625	-791.8960571289065	-465.4644470214845	1026.868408203125	-820.7007446289065	-462.8329162597657	1025.259033203125	-762.8295288085939	-342.3187866210938	745.1936035156251	-1013.839294433594	-306.1500854492188	668.9650268554689	-1021.466003417969	-262.9736022949219	672.7857055664064	-997.600769042969	-330.8188171386719	613.7175292968751	-1024.948120117188	-344.5171813964844	522.9497680664064	-1021.673156738281	-326.1627197265626	480.6209106445314	-898.2840576171877	-410.1815490722657	410.2162475585939	-996.8775634765627	-474.5209960937501	452.4219970703126	-1037.493896484375	-461.5359802246095	412.3240966796876	-1023.653259277344	-532.7672729492189	377.3500671386719	-993.5144042968752	-696.4577636718751	388.7772521972657	-1002.623596191406	-661.9721679687501	360.5903625488282	-925.3796386718752	-741.9442138671876	422.6299743652345	-950.3908691406252	-681.9373779296876	221.3074188232422	-944.3142089843752	-685.9058837890626	220.5067596435547	-993.6051025390627	-727.7221069335939	252.2117156982422	-1035.480590820313	-348.7225341796876	768.1585083007815	-616.8679809570314	-301.6211242675782	722.1439208984376	-622.3703613281251	-271.5423278808594	733.2051391601564	-633.4163208007814	-316.3539733886719	638.9331665039064	-639.2993164062501	-309.3437194824219	488.2694702148439	-681.1684570312501	-275.9102478027344	496.5038146972657	-805.5793457031252	-272.6614074707032	348.7277526855469	-767.3598632812501	-326.6822204589844	269.7467956542969	-716.6883544921876	-292.2052001953126	265.1907043457032	-751.3083496093751	-312.1365661621094	227.925765991211	-792.3377685546877	-392.2731933593751	114.8183517456055	-765.8073730468751	-365.7379455566407	142.9876251220703	-844.8791503906252	-449.5285034179689	98.91562652587893	-824.0101318359377	-246.8342895507813	55.60878753662111	-836.542663574219	-246.114242553711	55.68701171875001	-794.4070434570315	-283.7714538574219	35.4444694519043	-742.0545654296876	nan	nan	nan	
